<?xml version="1.0" encoding="utf-8"?>
<!-- Generator: Adobe Illustrator 27.0.0, SVG Export Plug-In . SVG Version: 6.00 Build 0)  -->
<svg version="1.1" id="Capa_1" xmlns="http://www.w3.org/2000/svg" xmlns:xlink="http://www.w3.org/1999/xlink" x="0px" y="0px"
	 viewBox="0 0 200 154.23" style="enable-background:new 0 0 200 154.23;" xml:space="preserve">
<style type="text/css">
	.st0{fill:#E31B46;}
</style>
<g>
	<path class="st0" d="M62.52,31.42l26.89,0.02l14.02,13.89l14.07-14.07l-0.07-0.07L96.29,10.04l-3.13-3.13l0.13,0.14
		c-1.78-1.78-4.63-1.76-6.39,0l0.1-0.1L51.81,42.14c-1.84,1.84-1.67,4.73-0.11,6.3c0.2,0.2,3.15,3.04,3.15,3.04l7.62,7.62l2.5,24.69
		l3.35-3.35l7.75-7.75l13.81-13.81L62.52,31.42z"/>
	<path class="st0" d="M137.59,79.26h-27.23L96.57,65.37L82.5,79.44l0.07,0.07l21.15,21.15l3.13,3.13l-0.13-0.14
		c1.78,1.78,4.63,1.76,6.39,0l-0.1,0.1l35.19-35.19c1.84-1.84,1.67-4.73,0.11-6.3c-0.2-0.2-3.15-3.04-3.15-3.04l-7.62-7.62
		l-2.5-24.69l-3.35,3.35l-7.75,7.75l-13.81,13.81L137.59,79.26z"/>
	<path class="st0" d="M17.09,136.76c0,1.69,0.25,3.2,0.76,4.54s1.2,2.46,2.09,3.39c0.88,0.93,1.93,1.63,3.15,2.12
		c1.21,0.49,2.53,0.73,3.94,0.73c0.84,0,1.65-0.16,2.43-0.49c0.78-0.33,1.51-0.75,2.18-1.28c0.67-0.52,1.27-1.11,1.8-1.78
		c0.53-0.66,0.97-1.33,1.31-2.01l1.69,1.09c-0.49,0.81-1.08,1.58-1.75,2.33c-0.67,0.75-1.45,1.41-2.34,1.97
		c-0.89,0.57-1.89,1.03-3,1.37c-1.11,0.34-2.36,0.52-3.74,0.52c-1.32,0-2.57-0.15-3.74-0.46c-1.17-0.31-2.25-0.73-3.23-1.28
		c-0.98-0.55-1.86-1.2-2.64-1.97c-0.78-0.77-1.43-1.62-1.97-2.54c-0.53-0.92-0.95-1.92-1.23-2.97c-0.29-1.06-0.43-2.15-0.43-3.28
		s0.15-2.22,0.44-3.29c0.29-1.06,0.71-2.06,1.26-3c0.55-0.94,1.22-1.8,2.01-2.58c0.79-0.78,1.69-1.45,2.68-2.01
		c0.99-0.56,2.08-0.99,3.27-1.3c1.18-0.31,2.45-0.47,3.79-0.47c1.28,0,2.45,0.17,3.53,0.52c1.08,0.34,2.06,0.8,2.95,1.37
		c0.89,0.57,1.68,1.23,2.37,1.97c0.69,0.75,1.28,1.52,1.78,2.33l-1.74,1.17c-1.01-1.94-2.14-3.37-3.38-4.28
		c-1.24-0.91-2.67-1.36-4.28-1.36c-1.39,0-2.69,0.25-3.9,0.76c-1.21,0.51-2.26,1.23-3.16,2.17c-0.9,0.94-1.6,2.09-2.12,3.43
		C17.35,133.55,17.09,135.07,17.09,136.76z"/>
	<path class="st0" d="M53.65,149.26c-1.24,0-2.43-0.15-3.57-0.46c-1.14-0.31-2.2-0.73-3.17-1.29c-0.98-0.55-1.87-1.22-2.67-1.99
		c-0.81-0.78-1.49-1.64-2.05-2.58c-0.56-0.94-1-1.95-1.31-3.04c-0.31-1.08-0.47-2.21-0.47-3.38c0-1.15,0.16-2.25,0.47-3.31
		c0.31-1.06,0.75-2.05,1.31-2.97c0.56-0.92,1.25-1.76,2.05-2.51c0.8-0.75,1.7-1.4,2.67-1.94c0.98-0.54,2.04-0.96,3.17-1.25
		c1.14-0.29,2.33-0.44,3.57-0.44c1.24,0,2.43,0.15,3.57,0.44c1.14,0.29,2.2,0.71,3.17,1.25c0.98,0.54,1.87,1.19,2.67,1.94
		c0.81,0.75,1.49,1.59,2.05,2.51c0.56,0.92,1,1.91,1.31,2.97c0.31,1.06,0.47,2.16,0.47,3.31c0,1.16-0.16,2.29-0.47,3.37
		c-0.31,1.09-0.75,2.1-1.31,3.04c-0.56,0.94-1.25,1.8-2.05,2.58c-0.8,0.78-1.7,1.44-2.67,1.99c-0.98,0.55-2.04,0.98-3.17,1.29
		C56.08,149.11,54.89,149.26,53.65,149.26z M53.65,148.05c1.37,0,2.58-0.29,3.64-0.86c1.06-0.57,1.95-1.37,2.66-2.4
		c0.72-1.02,1.26-2.24,1.64-3.65c0.37-1.41,0.56-2.95,0.56-4.61c0-1.64-0.19-3.15-0.56-4.53c-0.37-1.37-0.92-2.56-1.64-3.55
		c-0.72-0.99-1.61-1.77-2.66-2.32c-1.06-0.55-2.27-0.83-3.64-0.83c-1.4,0-2.64,0.28-3.7,0.83c-1.06,0.55-1.95,1.33-2.66,2.32
		c-0.71,0.99-1.25,2.18-1.61,3.55c-0.36,1.37-0.54,2.88-0.54,4.53c0,1.67,0.18,3.2,0.54,4.61c0.36,1.41,0.9,2.62,1.61,3.65
		c0.71,1.02,1.6,1.82,2.66,2.4C51.02,147.76,52.25,148.05,53.65,148.05z"/>
	<path class="st0" d="M71.9,124.67h4.12l9.35,18.44h0.19l9.17-18.44h4.05v24.02h-4.05v-19.68h-0.14l-9.85,19.68h-0.83l-9.97-19.54
		h-0.28v19.54H71.9V124.67z"/>
	<path class="st0" d="M104.39,124.67h4.04v15.59c0,1.02,0.17,1.99,0.53,2.89c0.35,0.9,0.85,1.69,1.51,2.37
		c0.66,0.68,1.44,1.21,2.36,1.6c0.92,0.39,1.95,0.59,3.09,0.59c1.15,0,2.18-0.2,3.1-0.59c0.92-0.39,1.7-0.93,2.35-1.6
		c0.64-0.68,1.14-1.47,1.48-2.37c0.35-0.9,0.52-1.87,0.52-2.89v-15.59h1.78v15.59c0,1.23-0.2,2.39-0.6,3.48
		c-0.4,1.09-1.02,2.04-1.87,2.86c-0.85,0.82-1.94,1.47-3.27,1.95c-1.33,0.48-2.92,0.72-4.79,0.72c-1.66,0-3.12-0.24-4.4-0.72
		c-1.28-0.48-2.35-1.13-3.21-1.96s-1.51-1.79-1.96-2.9c-0.44-1.1-0.66-2.28-0.66-3.52V124.67z"/>
	<path class="st0" d="M130.74,124.67H133l15.75,17.56h0.16v-17.56h1.78v24.59h-0.93l-17.06-19.54h-0.14v18.97h-1.81V124.67z"/>
	<path class="st0" d="M156.71,124.67h4.04v24.02h-4.04V124.67z"/>
	<path class="st0" d="M165.89,148.69h-2.12l10.12-11.85l-9.23-12.18h4.79l6.97,9.23l7.86-9.23h2.14l-9.02,10.56l10.23,13.47h-4.81
		l-7.95-10.52L165.89,148.69z"/>
</g>
</svg>
